<?xml version="1.0" ?><!-- Uploaded to: SVG Repo, www.svgrepo.com, Generator: SVG Repo Mixer Tools -->
<svg width="800px" height="800px" viewBox="0 0 32 32" id="object" xmlns="http://www.w3.org/2000/svg"><defs><style>.cls-1{fill:#ffd599;}.cls-2{fill:#6d6daa;}.cls-3{fill:#d6b5b0;}.cls-4{fill:#eef5fd;}.cls-5{fill:#ff9797;}</style></defs><title/><rect class="cls-1" height="4" width="28" x="2" y="22"/><path class="cls-2" d="M30,27H2a1,1,0,0,1-1-1V22a1,1,0,0,1,1-1H30a1,1,0,0,1,1,1v4A1,1,0,0,1,30,27ZM3,25H29V23H3Z"/><circle class="cls-3" cx="6" cy="28" r="2"/><path class="cls-2" d="M6,31a3,3,0,1,1,3-3A3,3,0,0,1,6,31Zm0-4a1,1,0,1,0,1,1A1,1,0,0,0,6,27Z"/><circle class="cls-3" cx="26" cy="28" r="2"/><path class="cls-2" d="M26,31a3,3,0,1,1,3-3A3,3,0,0,1,26,31Zm0-4a1,1,0,1,0,1,1A1,1,0,0,0,26,27Z"/><path class="cls-4" d="M16,2h0A12,12,0,0,1,28,14v8a0,0,0,0,1,0,0H4a0,0,0,0,1,0,0V14A12,12,0,0,1,16,2Z"/><path class="cls-2" d="M28,23H4a1,1,0,0,1-1-1V14a13,13,0,0,1,26,0v8A1,1,0,0,1,28,23ZM5,21H27V14A11,11,0,0,0,5,14Z"/><rect class="cls-5" height="10" width="12" x="10" y="12"/><path class="cls-2" d="M22,23H10a1,1,0,0,1-1-1V12a1,1,0,0,1,1-1H22a1,1,0,0,1,1,1V22A1,1,0,0,1,22,23ZM11,21H21V13H11Z"/><path class="cls-2" d="M18.5,13h-5a1,1,0,0,1-1-1V8a1,1,0,0,1,1-1h5a1,1,0,0,1,1,1v4A1,1,0,0,1,18.5,13Zm-4-2h3V9h-3Z"/></svg>